<?xml version="1.0" encoding="utf-8"?>
<!-- Generator: Adobe Illustrator 16.0.0, SVG Export Plug-In . SVG Version: 6.00 Build 0)  -->
<!DOCTYPE svg PUBLIC "-//W3C//DTD SVG 1.1//EN" "http://www.w3.org/Graphics/SVG/1.1/DTD/svg11.dtd">
<svg version="1.1" id="Capa_1" xmlns="http://www.w3.org/2000/svg" xmlns:xlink="http://www.w3.org/1999/xlink" x="0px" y="0px"
	 width="1000px" height="1000px" viewBox="0 0 1000 1000" enable-background="new 0 0 1000 1000" xml:space="preserve">
<g>
	<path fill="#FFFFFF" d="M499.839,84.241c-156.743,0-283.604,126.879-283.604,283.621c0,61.202,19.357,117.833,52.334,164.199
		c0.048,0.049-0.033,0.275,0,0.324C344.653,651.238,472.114,755.029,487.419,906.6c1.493,5.365,6.875,9.16,12.42,9.16
		s10.927-3.795,12.434-9.16c15.288-151.57,142.767-255.361,218.818-374.215c0.048-0.049,0.309-0.275,0.325-0.324
		c32.992-46.367,52.35-102.998,52.35-164.199C783.766,211.12,656.578,84.241,499.839,84.241z M499.839,570.662
		c-112.061,0-202.818-90.756-202.818-202.801c0-112.076,90.758-202.817,202.818-202.817c112.06,0,203.141,90.741,203.141,202.817
		C702.979,479.906,611.898,570.662,499.839,570.662z"/>
	<polygon fill="#FFFFFF" points="544.309,229.828 455.302,229.828 455.302,323.163 361.951,323.163 361.951,412.169 
		455.302,412.169 455.302,505.537 544.309,505.537 544.309,412.169 637.658,412.169 637.658,323.163 544.309,323.163 	"/>
</g>
</svg>
