<?xml version="1.0" encoding="utf-8"?>
<!-- Generator: Adobe Illustrator 16.0.0, SVG Export Plug-In . SVG Version: 6.00 Build 0)  -->
<!DOCTYPE svg PUBLIC "-//W3C//DTD SVG 1.1//EN" "http://www.w3.org/Graphics/SVG/1.1/DTD/svg11.dtd">
<svg version="1.1" id="Capa_1" xmlns="http://www.w3.org/2000/svg" xmlns:xlink="http://www.w3.org/1999/xlink" x="0px" y="0px"
	 width="153px" height="57px" viewBox="0 0 153 57" enable-background="new 0 0 153 57" xml:space="preserve">
<g>
	<g>
		<path fill="#FFFFFF" d="M17.204,40.8h23.152V20.029L29.971,30.416c-0.315,0.316-0.744,0.493-1.19,0.493s-0.875-0.177-1.19-0.493
			L17.204,20.029V40.8z M42.041,44.168H15.52c-0.93,0-1.684-0.754-1.684-1.684V15.963c0-0.681,0.41-1.295,1.04-1.556
			c0.629-0.261,1.353-0.117,1.835,0.365L28.78,26.844L40.85,14.772c0.482-0.481,1.206-0.626,1.836-0.365
			c0.629,0.261,1.039,0.875,1.039,1.556v26.521C43.725,43.414,42.971,44.168,42.041,44.168"/>
		<path fill="#FFFFFF" d="M61.932,37.538L61.932,37.538c-0.931,0-1.684-0.754-1.684-1.684l0.003-13.262
			c0-0.93,0.754-1.684,1.684-1.684h0.001c0.93,0.001,1.683,0.755,1.683,1.685l-0.003,13.261
			C63.615,36.784,62.861,37.538,61.932,37.538"/>
		<path fill="#FFFFFF" d="M61.935,24.277c-0.258,0-0.516-0.059-0.753-0.178l-13.264-6.63c-0.832-0.416-1.169-1.427-0.753-2.259
			s1.427-1.17,2.259-0.754l12.511,6.254l12.504-6.254c0.831-0.416,1.844-0.078,2.26,0.753c0.416,0.832,0.079,1.844-0.753,2.26
			L62.688,24.1C62.451,24.219,62.193,24.277,61.935,24.277"/>
		<path fill="#FFFFFF" d="M75.19,44.169c-0.253,0-0.51-0.058-0.752-0.179l-12.507-6.254L49.424,43.99
			c-0.832,0.416-1.843,0.079-2.259-0.753s-0.079-1.844,0.753-2.26l13.261-6.63c0.474-0.237,1.032-0.237,1.506,0l13.26,6.63
			c0.832,0.416,1.169,1.428,0.754,2.26C76.403,43.828,75.809,44.169,75.19,44.169"/>
		<path fill="#FFFFFF" d="M87.058,19.53v4.689c0.603,0.286,1.251,0.422,1.764,0.422c1.854,0,2.487-1.493,2.487-3.272
			c0-1.854-0.845-3.045-1.976-3.045C88.428,18.324,87.601,18.853,87.058,19.53 M92.665,21.31c0,2.804-1.356,4.327-3.709,4.327
			c-0.784,0-1.326-0.137-1.898-0.332v3.679h-1.312V17.39h0.995l0.226,1.024l0.076,0.016c0.542-0.527,1.281-1.16,2.457-1.16
			C91.625,17.27,92.665,19.169,92.665,21.31"/>
		<path fill="#FFFFFF" d="M94.551,25.516V17.39h1.024l0.227,1.131h0.091c0.573-0.603,1.387-1.251,2.141-1.251
			c0.361,0,0.632,0.165,0.874,0.497l-0.302,0.995c-0.211-0.105-0.467-0.182-0.738-0.182c-0.664,0-1.493,0.709-1.99,1.177v5.759
			H94.551z"/>
		<path fill="#FFFFFF" d="M105.843,21.46c0-2.337-0.979-3.15-2.337-3.15c-1.402,0-2.367,0.829-2.367,3.166
			c0,2.141,0.904,3.121,2.353,3.121C104.953,24.597,105.843,23.632,105.843,21.46 M99.782,21.49c0-2.714,1.326-4.221,3.724-4.221
			c2.412,0,3.678,1.477,3.678,4.19c0,2.971-1.507,4.177-3.708,4.177C101.305,25.637,99.782,24.369,99.782,21.49"/>
		<path fill="#FFFFFF" d="M111.421,25.636c-1.01,0-2.081-0.316-2.638-0.618l0.181-0.965c0.588,0.303,1.613,0.604,2.442,0.604
			c0.995,0,1.869-0.301,1.869-1.372c0-1.779-4.357-1.101-4.357-3.708c0-1.418,1.071-2.308,2.97-2.308
			c0.95,0,1.931,0.257,2.382,0.468l-0.226,0.979c-0.497-0.226-1.402-0.452-2.186-0.452c-0.995,0-1.628,0.407-1.628,1.236
			c0,1.659,4.342,1.071,4.342,3.739C114.572,24.882,113.23,25.636,111.421,25.636"/>
		<path fill="#FFFFFF" d="M117.783,19.53v4.689c0.604,0.286,1.251,0.422,1.765,0.422c1.854,0,2.486-1.493,2.486-3.272
			c0-1.854-0.844-3.045-1.975-3.045C119.154,18.324,118.325,18.853,117.783,19.53 M123.392,21.31c0,2.804-1.357,4.327-3.709,4.327
			c-0.784,0-1.327-0.137-1.899-0.332v3.679h-1.312V17.39h0.995l0.226,1.024l0.076,0.016c0.542-0.527,1.281-1.16,2.457-1.16
			C122.352,17.27,123.392,19.169,123.392,21.31"/>
		<path fill="#FFFFFF" d="M130.568,20.435c0-1.613-0.77-2.216-1.885-2.216s-2.096,0.634-2.291,2.216H130.568z M131.639,25.094
			c-0.663,0.316-1.599,0.542-2.639,0.542c-2.171,0-4.024-1.16-4.024-4.07c0-3.045,1.628-4.296,3.678-4.296
			c2.367,0,3.181,1.477,3.181,3.422c0,0.196,0,0.377-0.015,0.573h-5.488v0.377c0,2.201,1.327,2.938,2.835,2.938
			c0.814,0,1.765-0.24,2.321-0.467L131.639,25.094z"/>
		<path fill="#FFFFFF" d="M133.72,25.516V17.39h1.024l0.227,1.131h0.091c0.573-0.603,1.387-1.251,2.141-1.251
			c0.361,0,0.634,0.165,0.874,0.497l-0.302,0.995c-0.211-0.105-0.467-0.182-0.738-0.182c-0.664,0-1.493,0.709-1.989,1.177v5.759
			H133.72z"/>
		<path fill="#FFFFFF" d="M141.816,24.626c0.692,0,1.507-0.393,2.216-1.115V21.46c-0.874,0.166-1.945,0.438-2.594,0.619
			c-0.588,0.165-1.055,0.36-1.055,1.114C140.384,24.067,141.032,24.626,141.816,24.626 M146.398,25.35
			c-0.347,0.151-0.799,0.286-1.176,0.286c-0.724,0-1.055-0.376-1.161-1.07l-0.06-0.029c-0.874,0.692-1.523,1.1-2.533,1.1
			c-1.342,0-2.441-0.979-2.441-2.382c0-1.13,0.662-1.567,1.884-1.884c1.04-0.257,2.307-0.543,3.121-0.739v-0.604
			c0-1.13-0.438-1.732-1.765-1.732c-0.889,0-1.778,0.331-2.548,0.737l-0.301-0.919c0.859-0.498,1.944-0.845,2.909-0.845
			c1.674,0,3.031,0.528,3.031,2.835v3.904c0,0.316,0.029,0.603,0.451,0.603c0.227,0,0.393-0.015,0.527-0.029L146.398,25.35z"/>
		<path fill="#FFFFFF" d="M91.343,41.481v-4.706c-0.605-0.288-1.257-0.424-1.756-0.424c-1.861,0-2.497,1.498-2.497,3.283
			c0,1.861,0.832,3.058,1.983,3.058C89.98,42.692,90.782,42.163,91.343,41.481 M85.729,39.696c0-2.83,1.377-4.344,3.707-4.344
			c0.832,0,1.498,0.166,1.907,0.317v-3.692h1.316V43.63h-0.984l-0.242-1.027l-0.075-0.017c-0.56,0.53-1.286,1.165-2.451,1.165
			C86.773,43.751,85.729,41.845,85.729,39.696"/>
		<path fill="#FFFFFF" d="M94.749,35.474h1.332v8.156h-1.332V35.474z M95.415,31.902c0.515,0,0.878,0.363,0.878,0.862
			c0,0.498-0.363,0.878-0.878,0.878c-0.545,0-0.893-0.38-0.893-0.878C94.522,32.28,94.87,31.902,95.415,31.902"/>
		<path fill="#FFFFFF" d="M101.061,39.619c1.135,0,1.862-0.56,1.862-1.647c0-1.106-0.666-1.741-1.786-1.741
			c-1.18,0-1.786,0.651-1.801,1.754C99.336,38.833,99.896,39.619,101.061,39.619 M100.502,43.312c-0.471,0.09-1.59,0.575-1.59,1.558
			c0,1.09,1.347,1.302,2.392,1.302c1.18,0,2.753-0.348,2.768-1.694c0-0.695-0.407-1.165-1.451-1.165H100.502z M101.137,35.353
			c1.302,0,1.982,0.438,2.33,0.787h0.106c0.046-0.5,0.165-0.849,0.861-0.849c0.349,0,0.788,0.093,1.015,0.183l-0.075,0.786
			c-0.318-0.029-0.515-0.029-0.682-0.029c-0.604,0-0.636,0.348-0.666,0.922c0.106,0.274,0.151,0.591,0.151,0.832
			c0,1.606-1.361,2.528-3.238,2.528h-0.227c-0.545,0.181-1.483,0.62-1.483,1.271c0,0.47,0.516,0.591,0.878,0.591h2.633
			c1.711,0,2.663,0.665,2.663,2.104c-0.015,2.043-2.467,2.634-4.373,2.634c-1.195,0-3.466-0.333-3.466-2.074
			c0-0.999,0.712-1.559,1.363-1.937v-0.062c-0.802-0.271-0.895-0.755-0.895-1.059c0-0.892,0.879-1.468,1.65-1.739l-0.015-0.077
			c-1.029-0.317-1.619-1.09-1.619-2.18C98.064,36.427,99.215,35.353,101.137,35.353"/>
		<path fill="#FFFFFF" d="M106.874,35.474h1.332v8.156h-1.332V35.474z M107.54,31.902c0.515,0,0.877,0.363,0.877,0.862
			c0,0.498-0.362,0.878-0.877,0.878c-0.545,0-0.893-0.38-0.893-0.878C106.647,32.28,106.995,31.902,107.54,31.902"/>
		<path fill="#FFFFFF" d="M109.554,35.474h1.301l0.288-1.893h1.029v1.893h2.527l-0.121,0.999h-2.406v4.948
			c0,0.726,0.242,1.21,1.074,1.21c0.409,0,0.969-0.106,1.604-0.362l0.167,1.014c-0.742,0.333-1.482,0.47-2.059,0.47
			c-1.573,0-2.104-0.848-2.104-2.271v-5.008h-1.301V35.474z"/>
		<path fill="#FFFFFF" d="M118.953,42.736c0.696,0,1.514-0.393,2.226-1.118V39.56c-0.878,0.166-1.953,0.438-2.604,0.619
			c-0.59,0.169-1.059,0.364-1.059,1.121C117.517,42.178,118.166,42.736,118.953,42.736 M123.554,43.464
			c-0.349,0.15-0.802,0.287-1.181,0.287c-0.726,0-1.059-0.379-1.165-1.074l-0.061-0.03c-0.878,0.696-1.528,1.104-2.542,1.104
			c-1.347,0-2.452-0.983-2.452-2.391c0-1.135,0.667-1.574,1.892-1.892c1.045-0.258,2.315-0.545,3.134-0.74v-0.607
			c0-1.134-0.439-1.74-1.771-1.74c-0.893,0-1.786,0.333-2.558,0.741l-0.302-0.922c0.862-0.499,1.951-0.848,2.92-0.848
			c1.68,0,3.042,0.529,3.042,2.844v3.92c0,0.318,0.029,0.604,0.454,0.604c0.227,0,0.394-0.014,0.529-0.028L123.554,43.464z"/>
	</g>
	<rect x="124.934" y="31.978" fill="#FFFFFF" width="1.331" height="11.652"/>
</g>
</svg>
